<mxfile host="app.diagrams.net" modified="2021-09-05T14:43:07.670Z" agent="5.0 (Windows NT 10.0; Win64; x64) AppleWebKit/537.36 (KHTML, like Gecko) Chrome/90.0.4430.93 Safari/537.36" etag="oTDQ3hDDW-MWE4mR8P3L" version="14.9.8" type="github">
  <diagram id="i0M6WJDhhVYFyg2WR8xw" name="Page-1">
    <mxGraphModel dx="1420" dy="802" grid="1" gridSize="10" guides="1" tooltips="1" connect="1" arrows="1" fold="1" page="1" pageScale="1" pageWidth="827" pageHeight="1169" math="0" shadow="0">
      <root>
        <mxCell id="0" />
        <mxCell id="1" parent="0" />
        <mxCell id="jzUD9FvAD9lhoMT2rPVL-3" value="" style="edgeStyle=orthogonalEdgeStyle;rounded=0;orthogonalLoop=1;jettySize=auto;html=1;" edge="1" parent="1" source="jzUD9FvAD9lhoMT2rPVL-1" target="jzUD9FvAD9lhoMT2rPVL-2">
          <mxGeometry relative="1" as="geometry" />
        </mxCell>
        <mxCell id="jzUD9FvAD9lhoMT2rPVL-1" value="MessageQueue&lt;br&gt;.enqueueMessage" style="rounded=1;whiteSpace=wrap;html=1;" vertex="1" parent="1">
          <mxGeometry x="352" y="80" width="124" height="40" as="geometry" />
        </mxCell>
        <mxCell id="jzUD9FvAD9lhoMT2rPVL-5" value="" style="edgeStyle=orthogonalEdgeStyle;rounded=0;orthogonalLoop=1;jettySize=auto;html=1;" edge="1" parent="1" source="jzUD9FvAD9lhoMT2rPVL-2" target="jzUD9FvAD9lhoMT2rPVL-4">
          <mxGeometry relative="1" as="geometry" />
        </mxCell>
        <mxCell id="jzUD9FvAD9lhoMT2rPVL-8" value="" style="edgeStyle=orthogonalEdgeStyle;rounded=0;orthogonalLoop=1;jettySize=auto;html=1;" edge="1" parent="1" source="jzUD9FvAD9lhoMT2rPVL-2" target="jzUD9FvAD9lhoMT2rPVL-7">
          <mxGeometry relative="1" as="geometry" />
        </mxCell>
        <mxCell id="jzUD9FvAD9lhoMT2rPVL-2" value="msg.target==null" style="rhombus;whiteSpace=wrap;html=1;" vertex="1" parent="1">
          <mxGeometry x="347" y="160" width="134" height="60" as="geometry" />
        </mxCell>
        <mxCell id="jzUD9FvAD9lhoMT2rPVL-4" value="抛出错误IllegalArgumentException" style="rounded=0;whiteSpace=wrap;html=1;" vertex="1" parent="1">
          <mxGeometry x="590" y="165" width="150" height="50" as="geometry" />
        </mxCell>
        <mxCell id="jzUD9FvAD9lhoMT2rPVL-6" value="Y" style="text;html=1;align=center;verticalAlign=middle;resizable=0;points=[];autosize=1;strokeColor=none;" vertex="1" parent="1">
          <mxGeometry x="480" y="160" width="20" height="20" as="geometry" />
        </mxCell>
        <mxCell id="jzUD9FvAD9lhoMT2rPVL-13" value="" style="edgeStyle=orthogonalEdgeStyle;rounded=0;orthogonalLoop=1;jettySize=auto;html=1;" edge="1" parent="1" source="jzUD9FvAD9lhoMT2rPVL-7" target="jzUD9FvAD9lhoMT2rPVL-10">
          <mxGeometry relative="1" as="geometry" />
        </mxCell>
        <mxCell id="jzUD9FvAD9lhoMT2rPVL-7" value="synchronize(MessageQueue)" style="rounded=0;whiteSpace=wrap;html=1;" vertex="1" parent="1">
          <mxGeometry x="323.5" y="250" width="181" height="40" as="geometry" />
        </mxCell>
        <mxCell id="jzUD9FvAD9lhoMT2rPVL-9" value="N&lt;br&gt;" style="text;html=1;align=center;verticalAlign=middle;resizable=0;points=[];autosize=1;strokeColor=none;" vertex="1" parent="1">
          <mxGeometry x="420" y="220" width="20" height="20" as="geometry" />
        </mxCell>
        <mxCell id="jzUD9FvAD9lhoMT2rPVL-14" value="" style="edgeStyle=orthogonalEdgeStyle;rounded=0;orthogonalLoop=1;jettySize=auto;html=1;" edge="1" parent="1" source="jzUD9FvAD9lhoMT2rPVL-10" target="jzUD9FvAD9lhoMT2rPVL-12">
          <mxGeometry relative="1" as="geometry" />
        </mxCell>
        <mxCell id="jzUD9FvAD9lhoMT2rPVL-18" value="" style="edgeStyle=orthogonalEdgeStyle;rounded=0;orthogonalLoop=1;jettySize=auto;html=1;" edge="1" parent="1" source="jzUD9FvAD9lhoMT2rPVL-10" target="jzUD9FvAD9lhoMT2rPVL-17">
          <mxGeometry relative="1" as="geometry" />
        </mxCell>
        <mxCell id="jzUD9FvAD9lhoMT2rPVL-10" value="msg.isInUse" style="rhombus;whiteSpace=wrap;html=1;" vertex="1" parent="1">
          <mxGeometry x="347" y="330" width="134" height="60" as="geometry" />
        </mxCell>
        <mxCell id="jzUD9FvAD9lhoMT2rPVL-12" value="抛出错误IllegalStateException" style="rounded=0;whiteSpace=wrap;html=1;" vertex="1" parent="1">
          <mxGeometry x="590" y="335" width="150" height="50" as="geometry" />
        </mxCell>
        <mxCell id="jzUD9FvAD9lhoMT2rPVL-16" value="Y" style="text;html=1;align=center;verticalAlign=middle;resizable=0;points=[];autosize=1;strokeColor=none;" vertex="1" parent="1">
          <mxGeometry x="480" y="340" width="20" height="20" as="geometry" />
        </mxCell>
        <mxCell id="jzUD9FvAD9lhoMT2rPVL-21" value="" style="edgeStyle=orthogonalEdgeStyle;rounded=0;orthogonalLoop=1;jettySize=auto;html=1;" edge="1" parent="1" source="jzUD9FvAD9lhoMT2rPVL-17" target="jzUD9FvAD9lhoMT2rPVL-20">
          <mxGeometry relative="1" as="geometry" />
        </mxCell>
        <mxCell id="jzUD9FvAD9lhoMT2rPVL-25" value="" style="edgeStyle=orthogonalEdgeStyle;rounded=0;orthogonalLoop=1;jettySize=auto;html=1;" edge="1" parent="1" source="jzUD9FvAD9lhoMT2rPVL-17" target="jzUD9FvAD9lhoMT2rPVL-24">
          <mxGeometry relative="1" as="geometry" />
        </mxCell>
        <mxCell id="jzUD9FvAD9lhoMT2rPVL-17" value="当前线程是否已经结束" style="rhombus;whiteSpace=wrap;html=1;" vertex="1" parent="1">
          <mxGeometry x="337.5" y="430" width="153" height="60" as="geometry" />
        </mxCell>
        <mxCell id="jzUD9FvAD9lhoMT2rPVL-19" value="N" style="text;html=1;align=center;verticalAlign=middle;resizable=0;points=[];autosize=1;strokeColor=none;" vertex="1" parent="1">
          <mxGeometry x="420" y="400" width="20" height="20" as="geometry" />
        </mxCell>
        <mxCell id="jzUD9FvAD9lhoMT2rPVL-20" value="回收msg, retturn false" style="rounded=0;whiteSpace=wrap;html=1;" vertex="1" parent="1">
          <mxGeometry x="590" y="435" width="150" height="50" as="geometry" />
        </mxCell>
        <mxCell id="jzUD9FvAD9lhoMT2rPVL-22" value="Y" style="text;html=1;align=center;verticalAlign=middle;resizable=0;points=[];autosize=1;strokeColor=none;" vertex="1" parent="1">
          <mxGeometry x="490" y="440" width="20" height="20" as="geometry" />
        </mxCell>
        <mxCell id="jzUD9FvAD9lhoMT2rPVL-24" value="将msg标记为已使用，设置时间" style="rounded=0;whiteSpace=wrap;html=1;" vertex="1" parent="1">
          <mxGeometry x="339" y="530" width="150" height="50" as="geometry" />
        </mxCell>
        <mxCell id="jzUD9FvAD9lhoMT2rPVL-26" value="N" style="text;html=1;align=center;verticalAlign=middle;resizable=0;points=[];autosize=1;strokeColor=none;" vertex="1" parent="1">
          <mxGeometry x="420" y="500" width="20" height="20" as="geometry" />
        </mxCell>
      </root>
    </mxGraphModel>
  </diagram>
</mxfile>
